<?xml version="1.0" encoding="UTF-8" standalone="no"?>
<!-- Created with Inkscape (http://www.inkscape.org/) -->

<svg
   version="1.1"
   id="svg1"
   width="192"
   height="192"
   viewBox="0 0 192 192"
   sodipodi:docname="instagram.svg"
   inkscape:version="1.3.2 (091e20ef0f, 2023-11-25, custom)"
   xmlns:inkscape="http://www.inkscape.org/namespaces/inkscape"
   xmlns:sodipodi="http://sodipodi.sourceforge.net/DTD/sodipodi-0.dtd"
   xmlns="http://www.w3.org/2000/svg"
   xmlns:svg="http://www.w3.org/2000/svg">
  <defs
     id="defs1" />
  <sodipodi:namedview
     id="namedview1"
     pagecolor="#ffffff"
     bordercolor="#000000"
     borderopacity="0.25"
     inkscape:showpageshadow="2"
     inkscape:pageopacity="0.0"
     inkscape:pagecheckerboard="0"
     inkscape:deskcolor="#d1d1d1"
     showguides="false"
     inkscape:zoom="2.1904423"
     inkscape:cx="67.337999"
     inkscape:cy="97.012372"
     inkscape:window-width="1504"
     inkscape:window-height="931"
     inkscape:window-x="0"
     inkscape:window-y="0"
     inkscape:window-maximized="1"
     inkscape:current-layer="g1" />
  <g
     inkscape:groupmode="layer"
     inkscape:label="Image"
     id="g1">
    <rect
       style="fill:#477694;fill-opacity:1;stroke:none;stroke-width:1.00018;stroke-dasharray:none;stroke-opacity:1"
       id="rect1"
       width="192"
       height="192"
       x="0.49740931"
       y="0.49740931" />
    <path
       style="fill:#ffffff;stroke-width:0.10037"
       d="m 50.90912,153.476 c -5.858913,-0.60559 -10.57579,-5.65664 -11.197739,-11.99104 -0.289743,-2.951 -0.277862,-88.937672 0.01254,-91.062788 0.749964,-5.487269 5.463179,-9.995869 11.232768,-10.745144 1.439954,-0.186995 89.019391,-0.251462 90.747541,-0.06677 4.96645,0.530704 8.81585,3.17797 10.84687,7.459476 0.99139,2.089935 0.94802,-0.136183 0.94878,48.683062 0.001,47.478484 0.003,47.348334 -0.74248,49.329254 -1.29557,3.44408 -4.40932,6.53218 -7.72909,7.66544 -2.19583,0.74958 -1.79478,0.74362 -48.815577,0.7263 -38.188122,-0.014 -44.708025,0.0639 -45.303665,0.002 z m 83.63367,-13.32741 c 3.70811,-0.27139 5.00245,-1.19028 5.33019,-3.78402 0.072,-0.56902 0.35431,-41.219923 0.0655,-48.369654 l -4.12769,0.06697 c -5.83554,0.09468 -5.51293,0.004 -4.88853,1.381453 0.99427,2.194121 1.09196,8.57769 0.20746,13.556981 -3.92369,22.08844 -27.56624,34.70493 -48.462868,25.86146 -4.997239,-2.11484 -8.526519,-4.67674 -12.696342,-9.21629 -6.830156,-7.43575 -10.351649,-21.053279 -7.775442,-30.067358 0.157826,-0.552199 0.313714,-1.126808 0.346435,-1.276906 l 0.0595,-0.272907 c -3.103968,0.1 -6.217578,-0.006 -9.319699,0.152266 -0.09924,0.08414 -0.123158,40.071835 -0.02629,44.017345 -0.112301,4.26148 -0.06241,7.43862 4.859853,8.02702 1.664495,0.13124 74.586953,0.0583 76.427973,-0.0764 z M 98.843267,118.08536 c 5.692083,-0.78926 10.659973,-3.51266 14.273593,-7.82479 0.82271,-0.98174 2.06025,-2.68707 2.06025,-2.83904 1.20908,-1.78277 1.91554,-3.86253 2.44235,-5.94685 0.82129,-3.567147 0.90803,-5.173727 0.42545,-7.880509 C 114.9538,76.256274 95.463363,68.983422 82.365821,80.280525 c -3.362585,2.900343 -5.746711,7.044853 -6.968485,12.113856 -3.226483,13.386249 9.737657,27.591769 23.445931,25.690979 z m 34.796263,-43.7253 c 6.29782,-0.314974 6.41738,-0.546818 6.41641,-12.442084 -0.001,-9.069529 0.11702,-8.970986 -10.73084,-8.980594 -10.46562,-0.009 -10.43547,-0.03032 -10.6482,7.424395 -0.36471,12.780472 -0.0396,13.602999 5.53084,13.996095 1.74029,0.122799 6.99583,0.124024 9.43179,0.002 z"
       id="path1"
       sodipodi:nodetypes="sssssscssscsssssssssscsssssssscsssscsssssc" />
  </g>
</svg>
