<?xml version="1.0" encoding="UTF-8" standalone="no"?>
<!-- Created with Inkscape (http://www.inkscape.org/) -->

<svg
   version="1.1"
   id="svg1"
   width="120"
   height="120"
   viewBox="0 0 120 120"
   sodipodi:docname="trip-advisor.svg"
   inkscape:version="1.3.2 (091e20ef0f, 2023-11-25, custom)"
   xmlns:inkscape="http://www.inkscape.org/namespaces/inkscape"
   xmlns:sodipodi="http://sodipodi.sourceforge.net/DTD/sodipodi-0.dtd"
   xmlns="http://www.w3.org/2000/svg"
   xmlns:svg="http://www.w3.org/2000/svg">
  <defs
     id="defs1" />
  <sodipodi:namedview
     id="namedview1"
     pagecolor="#ffffff"
     bordercolor="#000000"
     borderopacity="0.25"
     inkscape:showpageshadow="2"
     inkscape:pageopacity="0.0"
     inkscape:pagecheckerboard="0"
     inkscape:deskcolor="#d1d1d1"
     inkscape:zoom="2.8357977"
     inkscape:cx="54.658342"
     inkscape:cy="87.629665"
     inkscape:window-width="1504"
     inkscape:window-height="931"
     inkscape:window-x="0"
     inkscape:window-y="0"
     inkscape:window-maximized="1"
     inkscape:current-layer="g1" />
  <g
     inkscape:groupmode="layer"
     inkscape:label="Image"
     id="g1"
     style="display:inline">
    <rect
       style="display:inline;fill:#ffffff;fill-opacity:1;stroke-width:0.995"
       id="rect25"
       width="120"
       height="120"
       x="0"
       y="0"
       inkscape:label="rect25" />
    <path
       style="display:inline;fill:#fedf81;fill-opacity:1;stroke-width:0.995"
       d="m 30.312273,34.02398 10.05254,-4.021016 34.02398,-0.773272 16.393372,6.495487 L 65.26418,52.273206 61.08851,68.821232 44.385828,42.529975 Z"
       id="path13" />
    <ellipse
       style="display:inline;fill:#f44336;fill-opacity:1;stroke-width:0.681679"
       id="path12"
       ry="5.3874435"
       rx="5.1860442"
       cy="65.086922"
       cx="30.034136"
       inkscape:label="path12" />
    <ellipse
       style="display:inline;fill:#00c853;fill-opacity:1;stroke-width:0.681679"
       id="path12-3"
       ry="5.3874435"
       rx="5.1860442"
       cy="65.065178"
       cx="90.028297" />
    <path
       style="display:inline;fill:#37474f;fill-opacity:1"
       d="M 19.062581,92.808094 C 2.973376,86.630651 -4.3855295,67.527915 3.284637,51.850659 6.6297214,45.013553 6.6380192,45.397613 3.0220241,39.695781 L 0.0440482,35 H 10.90975 c 9.948955,0 11.402492,-0.250266 17.227976,-2.966264 19.456741,-9.071257 44.267807,-9.071257 63.724548,0 C 97.687758,34.749734 99.141295,35 109.09025,35 h 10.8657 l -2.97797,4.695781 c -3.616,5.701832 -3.6077,5.317772 -0.26262,12.154878 14.21526,29.054929 -21.812917,56.732911 -46.425448,35.6655 l -4.051393,-3.467843 -2.755261,3.975842 C 61.967865,90.210871 60.400399,92 60,92 59.599601,92 58.032135,90.210871 56.516742,88.024158 l -2.755261,-3.975842 -4.051393,3.467843 c -8.442863,7.226776 -20.283286,9.271274 -30.647507,5.291935 z M 39.789838,85.091583 C 60.819505,74.274433 53.545565,43 30,43 6.2397186,43 -0.75105694,74.157631 20.5,85.341153 c 4.328451,2.277879 14.635462,2.144528 19.289838,-0.24957 z M 23.218183,78.393587 C 10.098577,71.700646 13.778467,51.90644 28.44977,50.252772 43.426854,48.564638 51.027512,68.435656 38.748951,77.178763 34.77414,80.009078 27.500198,80.578049 23.218183,78.393587 Z M 34.854975,73.574996 C 43.617613,69.043659 39.947,55 30,55 c -3.290975,0 -7.094548,2.282156 -8.574996,5.145025 -4.694014,9.077222 4.352749,18.123985 13.429971,13.429971 z M 99.789838,85.091583 C 120.81951,74.274433 113.54557,43 90,43 66.239719,43 59.248943,74.157631 80.5,85.341153 c 4.328451,2.277879 14.635462,2.144528 19.289838,-0.24957 z M 83.218183,78.393587 C 70.098577,71.700646 73.778467,51.90644 88.44977,50.252772 c 14.97708,-1.688134 22.57774,18.182884 10.299181,26.925991 -3.974811,2.830315 -11.248753,3.399286 -15.530768,1.214824 z m 11.636792,-4.818591 c 6.749155,-3.490123 6.546725,-14.248419 -0.327033,-17.380311 -9.08174,-4.137917 -17.912388,5.071179 -13.132435,13.695244 2.622659,4.731843 8.384573,6.309397 13.459468,3.685067 z M 61,56.460162 c 0,-4.964789 10.197583,-16.802337 16.5,-19.153513 1.65,-0.615548 3.9,-1.448144 5,-1.850212 C 85.205985,34.467355 78.637158,32.45643 67.896405,30.985816 56.814941,29.468552 31.360452,33.21233 37.5,35.456437 c 1.1,0.402068 3.35,1.234664 5,1.850212 C 48.802417,39.657825 59,51.495373 59,56.460162 59,57.307073 59.45,58 60,58 c 0.55,0 1,-0.692927 1,-1.539838 z"
       id="path16"
       sodipodi:nodetypes="ssscsssscssscssscsssssssssssssssssssssssssssssssssss" />
  </g>
</svg>
